<svg width="186" height="20" viewBox="0 0 186 20" fill="none" xmlns="http://www.w3.org/2000/svg">
<mask id="mask0_447_4117" style="mask-type:alpha" maskUnits="userSpaceOnUse" x="0" y="0" width="10" height="19">
<path fill-rule="evenodd" clip-rule="evenodd" d="M0.619049 0.163574H9.75766V18.644H0.619049V0.163574Z" fill="white"/>
</mask>
<g mask="url(#mask0_447_4117)">
<path fill-rule="evenodd" clip-rule="evenodd" d="M9.75766 8.05475H6.88553V18.644H3.08506V8.05475H0.619019V5.12439H3.08506V0.163574L5.67632 0.179343C6.34533 0.183402 6.88553 0.726884 6.88553 1.39589V5.12439H9.75766V8.05475Z" fill="#293349"/>
</g>
<path fill-rule="evenodd" clip-rule="evenodd" d="M20.5895 10.6366C20.4735 9.041 19.1389 8.08363 17.4273 8.08363C15.8896 8.08363 14.5261 8.80884 14.1199 10.6366H20.5895ZM24.332 13.1027H14.1199C14.5261 14.6694 15.8026 15.5397 17.6302 15.5397C18.9939 15.5397 20.3575 14.9884 21.1697 14.031L23.4035 16.2649C22.1272 17.9765 19.7481 18.9049 17.3692 18.9049C13.2206 18.9049 10.1743 16.0619 10.1743 11.8843C10.1743 7.50346 13.4816 4.77637 17.3692 4.77637C21.2277 4.77637 24.39 7.50346 24.39 11.6521C24.39 12.0293 24.3611 12.4935 24.332 13.1027Z" fill="#293349"/>
<path fill-rule="evenodd" clip-rule="evenodd" d="M25.608 11.8262C25.608 7.5325 29.0893 4.77637 33.0349 4.77637C35.5009 4.77637 37.4737 5.93671 38.7502 7.67738L35.9071 9.67926C35.2978 8.83788 34.1663 8.31579 33.0639 8.31579C30.9171 8.31579 29.4665 9.85334 29.4665 11.8262C29.4665 13.8279 30.9171 15.3654 33.0639 15.3654C34.1663 15.3654 35.2978 14.8433 35.9071 14.002L38.7502 16.0038C37.4737 17.7736 35.5009 18.9049 33.0349 18.9049C29.0893 18.9049 25.608 16.1198 25.608 11.8262Z" fill="#293349"/>
<path fill-rule="evenodd" clip-rule="evenodd" d="M53.4144 11.2168V18.6438H49.6139V11.6229C49.6139 9.47614 48.3374 8.51876 47.0319 8.51876C45.6684 8.51876 43.9856 9.24398 43.9856 11.71V18.6438H40.1852V0.186523H42.7689C43.4409 0.186523 43.9856 0.731254 43.9856 1.40323V7.24226C44.5658 5.53063 46.7418 4.77622 48.0473 4.77622C51.5866 4.77622 53.4434 7.15514 53.4144 11.2168Z" fill="#293349"/>
<path fill-rule="evenodd" clip-rule="evenodd" d="M55.2929 11.8261C55.2929 7.52982 58.7764 4.77197 62.7246 4.77197C65.1919 4.77197 67.166 5.93325 68.4434 7.67502L65.5985 9.67798C64.9888 8.83614 63.8567 8.31358 62.7535 8.31358C60.6053 8.31358 59.1538 9.85207 59.1538 11.8261C59.1538 13.8293 60.6053 15.3678 62.7535 15.3678C63.8567 15.3678 64.9888 14.8452 65.5985 14.0034L68.4434 16.0063C67.166 17.7773 65.1919 18.9094 62.7246 18.9094C58.7764 18.9094 55.2929 16.1226 55.2929 11.8261Z" fill="#00C26D"/>
<path fill-rule="evenodd" clip-rule="evenodd" d="M80.2584 11.855C80.2584 9.76487 78.5167 8.37143 76.7459 8.37143C74.8297 8.37143 73.2333 9.85184 73.2333 11.855C73.2333 13.829 74.8297 15.3675 76.7459 15.3675C78.6036 15.3675 80.2584 13.916 80.2584 11.855ZM84.1774 6.33677V18.6479H80.3744V16.9642C79.4164 18.2995 77.5295 18.9091 76.0202 18.9091C72.5365 18.9091 69.3723 16.2094 69.3723 11.855C69.3723 7.50055 72.5365 4.80078 76.0202 4.80078C77.5877 4.80078 79.4164 5.38142 80.3744 6.74567V5.12006H82.9609C83.6327 5.12006 84.1774 5.66479 84.1774 6.33677Z" fill="#00C26D"/>
<path fill-rule="evenodd" clip-rule="evenodd" d="M97.1826 5.20741L96.3118 8.83614C95.499 8.4007 94.8312 8.34262 94.3667 8.34262C92.4218 8.34262 91.0863 10.1425 91.0863 14.0034V18.6482H87.2835V5.12029H89.8409C90.5127 5.12029 91.0574 5.66502 91.0574 6.337V7.9943C91.8122 5.72997 93.3506 4.77197 95.0345 4.77197C95.7602 4.77197 96.573 4.88813 97.1826 5.20741Z" fill="#00C26D"/>
<path fill-rule="evenodd" clip-rule="evenodd" d="M107.778 10.636C107.662 9.03926 106.327 8.08142 104.614 8.08142C103.075 8.08142 101.711 8.8071 101.305 10.636H107.778ZM111.523 13.1034H101.305C101.711 14.6711 102.988 15.542 104.817 15.542C106.181 15.542 107.546 14.9904 108.359 14.0324L110.594 16.2677C109.317 17.9804 106.936 18.9094 104.556 18.9094C100.405 18.9094 97.3566 16.0646 97.3566 11.8842C97.3566 7.50078 100.666 4.77197 104.556 4.77197C108.417 4.77197 111.581 7.50078 111.581 11.6521C111.581 12.0293 111.552 12.4939 111.523 13.1034Z" fill="#00C26D"/>
<path fill-rule="evenodd" clip-rule="evenodd" d="M123.396 10.636C123.28 9.03926 121.944 8.08142 120.231 8.08142C118.693 8.08142 117.329 8.8071 116.922 10.636H123.396ZM127.14 13.1034H116.922C117.329 14.6711 118.606 15.542 120.435 15.542C121.799 15.542 123.164 14.9904 123.976 14.0324L126.212 16.2677C124.934 17.9804 122.554 18.9094 120.173 18.9094C116.022 18.9094 112.974 16.0646 112.974 11.8842C112.974 7.50078 116.283 4.77197 120.173 4.77197C124.034 4.77197 127.198 7.50078 127.198 11.6521C127.198 12.0293 127.17 12.4939 127.14 13.1034Z" fill="#00C26D"/>
<path fill-rule="evenodd" clip-rule="evenodd" d="M139.304 5.20741L138.433 8.83614C137.62 8.4007 136.952 8.34262 136.488 8.34262C134.543 8.34262 133.207 10.1425 133.207 14.0034V18.6482H129.405V5.12029H131.962C132.634 5.12029 133.178 5.66502 133.178 6.337V7.9943C133.933 5.72997 135.472 4.77197 137.156 4.77197C137.881 4.77197 138.694 4.88813 139.304 5.20741Z" fill="#00C26D"/>
<mask id="mask1_447_4117" style="mask-type:alpha" maskUnits="userSpaceOnUse" x="138" y="14" width="5" height="5">
<path fill-rule="evenodd" clip-rule="evenodd" d="M138.055 14.2354H142.932V18.9091H138.055V14.2354Z" fill="white"/>
</mask>
<g mask="url(#mask1_447_4117)">
<path fill-rule="evenodd" clip-rule="evenodd" d="M138.055 16.5578C138.055 15.2224 139.158 14.2354 140.465 14.2354C141.8 14.2354 142.932 15.2224 142.932 16.5578C142.932 17.9222 141.8 18.9092 140.465 18.9092C139.158 18.9092 138.055 17.9222 138.055 16.5578Z" fill="#293349"/>
</g>
<path fill-rule="evenodd" clip-rule="evenodd" d="M158.753 11.2166V18.6482H154.95V11.623C154.95 9.47486 153.673 8.51686 152.366 8.51686C151.002 8.51686 149.318 9.24254 149.318 11.7101V18.6482H145.515V5.12045H148.102C148.774 5.12045 149.318 5.66502 149.318 6.337V7.38478C149.899 5.55589 152.047 4.77197 153.383 4.77197C156.924 4.77197 158.782 7.15246 158.753 11.2166Z" fill="#293349"/>
<path fill-rule="evenodd" clip-rule="evenodd" d="M171.293 10.636C171.177 9.03926 169.842 8.08142 168.129 8.08142C166.59 8.08142 165.226 8.8071 164.82 10.636H171.293ZM175.038 13.1034H164.82C165.226 14.6711 166.503 15.542 168.332 15.542C169.697 15.542 171.061 14.9904 171.874 14.0324L174.109 16.2677C172.832 17.9804 170.451 18.9094 168.071 18.9094C163.92 18.9094 160.872 16.0646 160.872 11.8842C160.872 7.50078 164.181 4.77197 168.071 4.77197C171.932 4.77197 175.096 7.50078 175.096 11.6521C175.096 12.0293 175.067 12.4939 175.038 13.1034Z" fill="#293349"/>
<path fill-rule="evenodd" clip-rule="evenodd" d="M185.082 8.05227H182.208V18.6481H178.405V8.05227H175.938V5.12034H178.405V0.15625H180.992C181.664 0.15625 182.208 0.700981 182.208 1.37296V5.12034H185.082V8.05227Z" fill="#293349"/>
</svg>
